<svg width="7" height="11" viewBox="0 0 7 11" fill="none" xmlns="http://www.w3.org/2000/svg">
<path d="M0.399602 10.287C0.306268 10.287 0.226935 10.259 0.161602 10.203C0.105602 10.1377 0.0776016 10.0583 0.0776016 9.96499V9.51699C0.0776016 9.30232 0.194268 9.09699 0.427602 8.90099L3.3956 5.93299C4.11427 5.33565 4.60894 4.85032 4.8796 4.47699C5.15027 4.09432 5.2856 3.69299 5.2856 3.27299C5.2856 2.73165 5.1316 2.30699 4.8236 1.99899C4.52494 1.69099 4.08627 1.53699 3.5076 1.53699C2.96627 1.53699 2.53227 1.70032 2.2056 2.02699C1.87893 2.34432 1.67827 2.76899 1.6036 3.30099C1.58493 3.41299 1.53827 3.49699 1.4636 3.55299C1.39827 3.59965 1.3236 3.62299 1.2396 3.62299H0.511602C0.427602 3.62299 0.357602 3.59965 0.301602 3.55299C0.245602 3.49699 0.217602 3.43165 0.217602 3.35699C0.236268 2.85299 0.371602 2.37232 0.623602 1.91499C0.875602 1.44832 1.24427 1.07032 1.7296 0.780987C2.22427 0.48232 2.81694 0.332987 3.5076 0.332987C4.56227 0.332987 5.3556 0.60832 5.8876 1.15899C6.42894 1.70032 6.6996 2.39099 6.6996 3.23099C6.6996 3.81899 6.55027 4.35099 6.2516 4.82699C5.96227 5.29365 5.5096 5.79765 4.8936 6.33899L2.2056 9.06899H6.5736C6.67627 9.06899 6.7556 9.10165 6.8116 9.16699C6.87694 9.22299 6.9096 9.29765 6.9096 9.39099V9.96499C6.9096 10.0583 6.87694 10.1377 6.8116 10.203C6.74627 10.259 6.66693 10.287 6.5736 10.287H0.399602Z" fill="black"/>
</svg>
