<svg width="21" height="22" viewBox="0 0 21 22" fill="none" xmlns="http://www.w3.org/2000/svg">
<circle cx="10.5" cy="10.787" r="10.5" fill="white"/>
<path d="M7.3996 15.287C7.30627 15.287 7.22693 15.259 7.1616 15.203C7.1056 15.1377 7.0776 15.0583 7.0776 14.965V14.517C7.0776 14.433 7.10093 14.3397 7.1476 14.237C7.19427 14.1343 7.2876 14.0223 7.4276 13.901L10.3956 10.933C10.8716 10.5317 11.2449 10.191 11.5156 9.91099C11.7956 9.62165 11.9916 9.34632 12.1036 9.08499C12.2249 8.82365 12.2856 8.55299 12.2856 8.27299C12.2856 7.74099 12.1363 7.32099 11.8376 7.01299C11.5389 6.69565 11.0956 6.53699 10.5076 6.53699C10.1343 6.53699 9.81227 6.61632 9.5416 6.77499C9.27094 6.92432 9.05627 7.13432 8.8976 7.40499C8.74827 7.66632 8.65027 7.96499 8.6036 8.30099C8.58493 8.42232 8.5336 8.50632 8.4496 8.55299C8.37494 8.59965 8.30494 8.62299 8.2396 8.62299H7.5116C7.4276 8.62299 7.3576 8.59965 7.3016 8.55299C7.2456 8.49699 7.2176 8.43165 7.2176 8.35699C7.22693 8.00232 7.3016 7.64765 7.4416 7.29299C7.5816 6.92899 7.78693 6.60232 8.0576 6.31299C8.3376 6.02365 8.67827 5.79032 9.0796 5.61299C9.49027 5.42632 9.96627 5.33299 10.5076 5.33299C11.2449 5.33299 11.8469 5.46832 12.3136 5.73899C12.7896 6.00032 13.1396 6.35032 13.3636 6.78899C13.5876 7.22765 13.6996 7.70832 13.6996 8.23099C13.6996 8.64165 13.6296 9.01965 13.4896 9.36499C13.3496 9.70099 13.1443 10.0323 12.8736 10.359C12.6123 10.6763 12.2856 11.003 11.8936 11.339L9.2056 14.069H13.5736C13.6763 14.069 13.7556 14.097 13.8116 14.153C13.8769 14.209 13.9096 14.2883 13.9096 14.391V14.965C13.9096 15.0583 13.8769 15.1377 13.8116 15.203C13.7556 15.259 13.6763 15.287 13.5736 15.287H7.3996Z" fill="black"/>
</svg>
